<svg width="22" height="17" viewBox="0 0 22 17" fill="none" xmlns="http://www.w3.org/2000/svg">
<path d="M3.5 0.5C2.26625 0.5 1.25 1.51625 1.25 2.75V7.83575C0.7925 8.249 0.5 8.84075 0.5 9.5V16.25H4.25V14.75H17.75V16.25H21.5V9.5C21.5 8.84075 21.2075 8.249 20.75 7.83575V2.75C20.75 1.51625 19.7337 0.5 18.5 0.5H3.5ZM3.5 2H18.5C18.9163 2 19.25 2.33375 19.25 2.75V7.25H17.75V6.5C17.75 5.26625 16.7337 4.25 15.5 4.25H12.5C11.9255 4.25 11.3982 4.475 11 4.83575C10.59 4.46115 10.0554 4.25237 9.5 4.25H6.5C5.26625 4.25 4.25 5.26625 4.25 6.5V7.25H2.75V2.75C2.75 2.33375 3.08375 2 3.5 2ZM6.5 5.75H9.5C9.91625 5.75 10.25 6.08375 10.25 6.5V7.25H5.75V6.5C5.75 6.08375 6.08375 5.75 6.5 5.75ZM12.5 5.75H15.5C15.9163 5.75 16.25 6.08375 16.25 6.5V7.25H11.75V6.5C11.75 6.08375 12.0837 5.75 12.5 5.75ZM2.75 8.75H19.25C19.6663 8.75 20 9.08375 20 9.5V14.75H19.25V13.25H2.75V14.75H2V9.5C2 9.08375 2.33375 8.75 2.75 8.75Z" fill="#0F1C35"/>
</svg>
