<svg width="24" height="19" viewBox="0 0 24 19" fill="none" xmlns="http://www.w3.org/2000/svg">
<path d="M21.75 7H19.5C19.5 6.80109 19.421 6.61032 19.2803 6.46967C19.1397 6.32902 18.9489 6.25 18.75 6.25H12.75C12.5511 6.25 12.3603 6.32902 12.2197 6.46967C12.079 6.61032 12 6.80109 12 7H6V2.875C6 2.57663 6.11853 2.29048 6.3295 2.0795C6.54048 1.86853 6.82663 1.75 7.125 1.75C7.42337 1.75 7.70952 1.86853 7.9205 2.0795C8.13147 2.29048 8.25 2.57663 8.25 2.875C8.25 3.07391 8.32902 3.26468 8.46967 3.40533C8.61032 3.54598 8.80109 3.625 9 3.625C9.19891 3.625 9.38968 3.54598 9.53033 3.40533C9.67098 3.26468 9.75 3.07391 9.75 2.875C9.75 2.17881 9.47344 1.51113 8.98116 1.01884C8.48887 0.526562 7.82119 0.25 7.125 0.25C6.42881 0.25 5.76113 0.526562 5.26884 1.01884C4.77656 1.51113 4.5 2.17881 4.5 2.875V7H2.25C1.85218 7 1.47064 7.15804 1.18934 7.43934C0.908035 7.72064 0.75 8.10218 0.75 8.5V11.5C0.75 12.8924 1.30312 14.2277 2.28769 15.2123C3.27226 16.1969 4.60761 16.75 6 16.75V18.25C6 18.4489 6.07902 18.6397 6.21967 18.7803C6.36032 18.921 6.55109 19 6.75 19C6.94891 19 7.13968 18.921 7.28033 18.7803C7.42098 18.6397 7.5 18.4489 7.5 18.25V16.75H16.5V18.25C16.5 18.4489 16.579 18.6397 16.7197 18.7803C16.8603 18.921 17.0511 19 17.25 19C17.4489 19 17.6397 18.921 17.7803 18.7803C17.921 18.6397 18 18.4489 18 18.25V16.75C19.3924 16.75 20.7277 16.1969 21.7123 15.2123C22.6969 14.2277 23.25 12.8924 23.25 11.5V8.5C23.25 8.10218 23.092 7.72064 22.8107 7.43934C22.5294 7.15804 22.1478 7 21.75 7ZM18 7.75V10.75H13.5V7.75H18ZM21.75 11.5C21.75 11.9925 21.653 12.4801 21.4645 12.9351C21.2761 13.39 20.9999 13.8034 20.6516 14.1517C20.3034 14.4999 19.89 14.7761 19.4351 14.9645C18.9801 15.153 18.4925 15.25 18 15.25H6C5.00544 15.25 4.05161 14.8549 3.34835 14.1517C2.64509 13.4484 2.25 12.4946 2.25 11.5V8.5H12V11.5C12 11.6989 12.079 11.8897 12.2197 12.0303C12.3603 12.171 12.5511 12.25 12.75 12.25H18.75C18.9489 12.25 19.1397 12.171 19.2803 12.0303C19.421 11.8897 19.5 11.6989 19.5 11.5V8.5H21.75V11.5Z" fill="#0F1C35"/>
</svg>
