<svg width="20" height="20" viewBox="0 0 20 20" fill="none" xmlns="http://www.w3.org/2000/svg">
<path d="M9 0.0500112V2.06201C7.77904 2.21623 6.61013 2.65005 5.58419 3.32974C4.55825 4.00942 3.70295 4.91663 3.08483 5.98079C2.4667 7.04495 2.10243 8.23737 2.02033 9.46529C1.93824 10.6932 2.14054 11.9235 2.6115 13.0605C3.08247 14.1975 3.80939 15.2104 4.73572 16.0206C5.66205 16.8308 6.76281 17.4164 7.95237 17.7318C9.14193 18.0472 10.3882 18.0839 11.5943 17.839C12.8003 17.5941 13.9336 17.0743 14.906 16.32L16.329 17.743C15.1212 18.73 13.6994 19.4208 12.177 19.7602C10.6546 20.0996 9.07394 20.0781 7.56132 19.6976C6.04871 19.317 4.64608 18.5879 3.46554 17.5686C2.285 16.5492 1.35928 15.2678 0.762364 13.8268C0.165451 12.3857 -0.0861046 10.8251 0.0278018 9.26949C0.141708 7.7139 0.617918 6.20653 1.41837 4.86784C2.21883 3.52915 3.32133 2.39626 4.63777 1.55971C5.95421 0.723164 7.44808 0.206158 9 0.0500112ZM19.95 11C19.7565 12.955 18.9886 14.8089 17.743 16.328L16.32 14.906C17.2015 13.7736 17.7605 12.424 17.938 11H19.951H19.95ZM11 0.0500112C13.2955 0.280225 15.4409 1.29708 17.0724 2.92824C18.7039 4.5594 19.7213 6.70451 19.952 9.00001H17.939C17.717 7.23721 16.9145 5.59846 15.6581 4.34221C14.4017 3.08597 12.7628 2.28373 11 2.06201V0.0490112V0.0500112Z" fill="#0F1C35"/>
</svg>
