<svg width="24" height="24" viewBox="0 0 24 24" fill="none" xmlns="http://www.w3.org/2000/svg">
<path d="M12 3.51501L3.515 12L12 20.485L20.485 12L12 3.51501ZM12.707 1.39301L22.607 11.293C22.7945 11.4805 22.8998 11.7348 22.8998 12C22.8998 12.2652 22.7945 12.5195 22.607 12.707L12.707 22.607C12.5195 22.7945 12.2652 22.8998 12 22.8998C11.7348 22.8998 11.4805 22.7945 11.293 22.607L1.393 12.707C1.20553 12.5195 1.10021 12.2652 1.10021 12C1.10021 11.7348 1.20553 11.4805 1.393 11.293L11.293 1.39301C11.4805 1.20554 11.7348 1.10022 12 1.10022C12.2652 1.10022 12.5195 1.20554 12.707 1.39301ZM13 10V7.50001L16.5 11L13 14.5V12H10V15H8V11C8 10.7348 8.10536 10.4804 8.29289 10.2929C8.48043 10.1054 8.73478 10 9 10H13Z" fill="#0F1C35"/>
</svg>
