<svg width="20" height="20" viewBox="0 0 20 20" fill="none" xmlns="http://www.w3.org/2000/svg">
<path d="M10 4.52405e-06C11.9778 4.52405e-06 13.9112 0.586494 15.5557 1.68531C17.2002 2.78412 18.4819 4.34591 19.2388 6.17317C19.9957 8.00043 20.1937 10.0111 19.8079 11.9509C19.422 13.8907 18.4696 15.6725 17.0711 17.0711C15.6725 18.4696 13.8907 19.422 11.9509 19.8079C10.0111 20.1937 8.00043 19.9957 6.17317 19.2388C4.3459 18.4819 2.78412 17.2002 1.6853 15.5557C0.58649 13.9112 0 11.9778 0 10H2C2.00022 11.9155 2.6877 13.7673 3.93749 15.2189C5.18727 16.6704 6.9164 17.6254 8.81058 17.9102C10.7048 18.195 12.6382 17.7907 14.2596 16.7708C15.881 15.7509 17.0826 14.1831 17.646 12.3524C18.2095 10.5217 18.0974 8.54953 17.3301 6.79446C16.5628 5.03939 15.1913 3.61788 13.4648 2.7883C11.7382 1.95872 9.7714 1.77615 7.9217 2.27377C6.07199 2.77138 4.46223 3.91615 3.385 5.5H6V7.5H0V1.5H2V4C2.93044 2.75695 4.13807 1.74812 5.52686 1.05372C6.91565 0.359328 8.44729 -0.00147371 10 4.52405e-06ZM11 5V9.585L14.243 12.828L12.828 14.243L9 10.413V5H11Z" fill="#0F1C35"/>
</svg>
