<svg width="24" height="24" viewBox="0 0 24 24" fill="none" xmlns="http://www.w3.org/2000/svg">
<path d="M13.12 17.023L8.92 14.733C8.3718 15.3191 7.65998 15.7267 6.87707 15.9029C6.09416 16.0791 5.27635 16.0157 4.52992 15.7211C3.78349 15.4264 3.14296 14.914 2.69157 14.2505C2.24018 13.587 1.99879 12.803 1.99879 12.0005C1.99879 11.198 2.24018 10.4141 2.69157 9.75058C3.14296 9.08707 3.78349 8.57467 4.52992 8.27998C5.27635 7.98529 6.09416 7.92193 6.87707 8.09813C7.65998 8.27434 8.3718 8.68196 8.92 9.26802L13.12 6.97802C12.8816 6.03409 12.9956 5.03561 13.4406 4.16972C13.8857 3.30384 14.6313 2.63 15.5377 2.27452C16.444 1.91904 17.4489 1.90633 18.364 2.23875C19.279 2.57118 20.0415 3.22594 20.5083 4.08028C20.9752 4.93463 21.1144 5.92991 20.8999 6.87957C20.6854 7.82922 20.1319 8.66806 19.3432 9.23883C18.5545 9.8096 17.5847 10.0731 16.6156 9.98001C15.6465 9.8869 14.7446 9.44353 14.079 8.73302L9.879 11.023C10.0402 11.6644 10.0402 12.3357 9.879 12.977L14.079 15.267C14.7446 14.5565 15.6465 14.1131 16.6156 14.02C17.5847 13.9269 18.5545 14.1904 19.3432 14.7612C20.1319 15.332 20.6854 16.1708 20.8999 17.1205C21.1144 18.0701 20.9752 19.0654 20.5083 19.9198C20.0415 20.7741 19.279 21.4289 18.364 21.7613C17.4489 22.0937 16.444 22.081 15.5377 21.7255C14.6313 21.37 13.8857 20.6962 13.4406 19.8303C12.9956 18.9644 12.8816 17.9659 13.12 17.022V17.023ZM6 14C6.39556 14 6.78224 13.8827 7.11114 13.663C7.44004 13.4432 7.69638 13.1308 7.84776 12.7654C7.99914 12.3999 8.03874 11.9978 7.96157 11.6098C7.8844 11.2219 7.69392 10.8655 7.41421 10.5858C7.13451 10.3061 6.77814 10.1156 6.39018 10.0384C6.00222 9.96128 5.60009 10.0009 5.23463 10.1523C4.86918 10.3036 4.55682 10.56 4.33706 10.8889C4.1173 11.2178 4 11.6045 4 12C4 12.5305 4.21071 13.0392 4.58579 13.4142C4.96086 13.7893 5.46957 14 6 14ZM17 8.00002C17.3956 8.00002 17.7822 7.88272 18.1111 7.66296C18.44 7.4432 18.6964 7.13084 18.8478 6.76539C18.9991 6.39994 19.0387 5.9978 18.9616 5.60984C18.8844 5.22188 18.6939 4.86551 18.4142 4.58581C18.1345 4.3061 17.7781 4.11562 17.3902 4.03845C17.0022 3.96128 16.6001 4.00089 16.2346 4.15226C15.8692 4.30364 15.5568 4.55998 15.3371 4.88888C15.1173 5.21778 15 5.60446 15 6.00002C15 6.53045 15.2107 7.03916 15.5858 7.41423C15.9609 7.78931 16.4696 8.00002 17 8.00002ZM17 20C17.3956 20 17.7822 19.8827 18.1111 19.663C18.44 19.4432 18.6964 19.1308 18.8478 18.7654C18.9991 18.3999 19.0387 17.9978 18.9616 17.6098C18.8844 17.2219 18.6939 16.8655 18.4142 16.5858C18.1345 16.3061 17.7781 16.1156 17.3902 16.0384C17.0022 15.9613 16.6001 16.0009 16.2346 16.1523C15.8692 16.3036 15.5568 16.56 15.3371 16.8889C15.1173 17.2178 15 17.6045 15 18C15 18.5305 15.2107 19.0392 15.5858 19.4142C15.9609 19.7893 16.4696 20 17 20Z" fill="#0F1C35"/>
</svg>
